<?xml version="1.0" encoding="utf-8"?>
<!-- Svg Vector Icons : http://www.onlinewebfonts.com/icon -->
<!DOCTYPE svg PUBLIC "-//W3C//DTD SVG 1.1//EN" "http://www.w3.org/Graphics/SVG/1.1/DTD/svg11.dtd">
<svg version="1.1" xmlns="http://www.w3.org/2000/svg" xmlns:xlink="http://www.w3.org/1999/xlink" x="0px" y="0px" viewBox="0 0 1000 1000" enable-background="new 0 0 1000 1000" xml:space="preserve">
<metadata> Svg Vector Icons : http://www.onlinewebfonts.com/icon </metadata>
<g><g transform="translate(0.000000,511.000000) scale(0.100000,-0.100000)"><path d="M3117.7,3767.3c-1117.4-138-2066.1-824.1-2606.6-1885.9C329,1524.8,198.7,1116.6,133.5,693c-40.2-262.6-46-858.6-7.7-1121.2c208.9-1473.9,1174.9-2641.1,2503.1-3026.3c268.3-78.6,483-105.4,824.1-105.4c483,0,785.8,72.8,1245.8,295.2c661.2,320.1,1332,933.4,1924.3,1761.4l155.2,216.6l111.2-237.7c410.2-862.5,688.1-1435.5,734.1-1502.6c86.2-126.5,295.2-304.7,454.2-387.1c230-118.8,341.2-145.7,607.6-145.7c197.4,0,253,7.7,385.2,51.7c429.3,141.8,730.2,498.3,808.8,958.3c24.9,149.5,26.8,189.7,7.7,208.9c-26.8,26.8-322,32.6-893.1,15.3l-323.9-9.6l-490.7,1054.1c-270.2,580.7-500.2,1077.1-513.6,1105.9c-23,49.8,11.5,97.7,1105.9,1521.8c1117.4,1458.5,1127,1471.9,1086.7,1502.6c-23,17.3-247.2,176.3-500.2,352.7c-444.6,314.3-458.1,322-490.6,287.5c-19.2-21.1-442.7-567.3-939.1-1215.1c-496.4-647.8-910.4-1180.6-918.1-1184.5c-5.7-1.9-28.8,23-47.9,57.5c-109.2,193.6-496.4,749.4-670.8,967.9c-743.6,925.7-1521.8,1464.3-2349.8,1625.3C3746.3,3778.8,3315.1,3792.2,3117.7,3767.3z M3784.6,2531.1c603.7-124.6,1213.2-630.6,1780.5-1483.5c228.1-343.1,523.2-877.8,523.2-950.6c0-47.9-243.4-504.1-412.1-776.2c-226.2-364.2-454.2-655.5-726.4-929.6c-297.1-297.1-452.3-415.9-711.1-544.3c-299-147.6-444.7-182.1-766.6-180.1c-231.9,1.9-291.3,9.6-440.8,53.7c-613.3,182.1-1123.1,621-1424,1228.5c-300.9,603.7-356.5,1305.2-155.2,1941.5c245.3,768.6,812.6,1362.7,1510.3,1583.1C3253.8,2565.6,3524,2584.7,3784.6,2531.1z"/></g></g>
</svg>